<svg width="76" height="101" viewBox="0 0 76 101" fill="none" xmlns="http://www.w3.org/2000/svg">
<path d="M51.3741 48.869C49.1642 46.9725 43.6683 43.616 39.363 45.3618C38.973 45.5177 38.1619 46.2503 38.0371 47.9338" stroke="#26330D" stroke-width="1.5" stroke-linecap="round"/>
<path d="M46.7381 65.2298C42.419 60.3423 39.9184 56.4778 40.4867 51.5903C40.8034 48.8662 42.3724 47.7427 43.8087 49.1029C45.7152 50.9083 47.1928 53.1815 49.2683 54.091C49.6752 54.2804 50.9664 54.6592 52.8759 54.6592" stroke="#26330D" stroke-width="1.5" stroke-linecap="round"/>
<path d="M62.6055 76.1475C62.3976 75.3161 61.966 72.6558 62.2155 70.5359C62.5275 67.886 62.2451 57.8838 57.8774 55.0001" stroke="#26330D" stroke-width="1.5" stroke-linecap="round"/>
<path d="M61.9689 49.7716L35.3278 47.8533C35.1054 47.8373 34.8792 47.8572 34.666 47.9223C31.215 48.9772 32.3661 50.9082 33.6684 52.1119C33.9543 52.3761 34.328 52.5182 34.7157 52.5535L40.3731 53.0678" stroke="#26330D" stroke-width="1.5" stroke-linecap="round"/>
<path d="M61.8553 55.2274L52.8723 54.6386" stroke="#26330D" stroke-width="1.5" stroke-linecap="round"/>
<ellipse cx="61.8095" cy="52.4893" rx="2.38692" ry="3.29622" fill="#26330D"/>
<path d="M58.438 54.1252C57.5134 52.4006 58.1924 50.9932 58.9488 50.207C59.2507 49.8932 59.6928 49.7825 60.1278 49.8027L60.7708 49.8326C61.8727 49.8838 62.7251 50.8175 62.676 51.9195L62.6232 53.1033C62.5719 54.2548 61.5604 55.1247 60.4142 55.0032L59.7585 54.9336C59.2142 54.8759 58.6966 54.6076 58.438 54.1252Z" fill="#26330D"/>
<path d="M32.6168 49.8869C32.5507 50.4745 31.902 50.7999 31.3915 50.5015C30.7797 50.1438 30.8814 49.2303 31.5568 49.016C32.1213 48.8369 32.683 49.2985 32.6168 49.8869Z" fill="#26330D"/>
<path d="M2.08852 51.9312L1 21.9098C0.999883 17.479 1.82419 9.97019 11.0302 10.0946C20.2363 10.2189 25.2332 10.1464 26.5809 10.0946" stroke="#26330D" stroke-width="1.5" stroke-linecap="round"/>
<path d="M37.1553 10.0946H52.6283C56.9047 10.1723 60.5592 12.0379 60.5592 19.1892C60.5592 26.3406 60.3476 41.2905 60.0366 49.0896" stroke="#26330D" stroke-width="1.5" stroke-linecap="round"/>
<path d="M47.0793 86.1436C40.7035 86.61 23.6523 87.8526 13.3629 88.293C9.0087 88.293 3.23935 87.7334 2.55515 79.898L2.08862 61.1645" stroke="#26330D" stroke-width="1.5" stroke-linecap="round"/>
<circle cx="31.8024" cy="6.56948" r="2.77355" stroke="#26330D" stroke-width="1.5"/>
<path d="M26.9816 8.49337C27.5394 10.1069 26.7492 11.2861 24.9673 11.674C24.1151 11.8595 22.922 11.8757 20.6288 12.6824C17.7623 13.6909 17.22 16.5612 17.1425 19.0437C17.0805 21.0296 18.2272 21.6812 20.2414 21.7588C26.1036 21.733 38.6593 21.914 42.0113 21.914C45.4976 21.914 46.0046 20.5952 46.1174 19.7418C46.6752 15.5217 45.1877 13.8299 43.8707 13.2255C43.2509 12.941 41.438 12.2325 39.1448 11.674C36.8516 11.1154 36.4387 10.3552 36.6657 9.2691C37.2235 6.60049 36.8981 4.43356 36.6657 3.68366C36.4074 2.64932 34.8993 0.67372 30.9327 1.04608C25.9744 1.51154 26.2843 6.47639 26.9816 8.49337Z" stroke="#26330D" stroke-width="1.5" stroke-linecap="round"/>
<path d="M54.126 48.5212L54.4213 19.7646C54.4213 19.1438 54.0696 18.0574 52.6361 18.0574C51.1615 18.0574 47.8499 18.1092 46.3494 18.0574" stroke="#26330D" stroke-width="1.5" stroke-linecap="round"/>
<path d="M16.7786 18.0575H9.63808C8.86194 17.9799 7.37174 18.43 7.62011 20.8511C7.86848 23.2722 9.06891 60.8149 9.63808 79.2836C9.61222 80.2148 10.0262 82.0461 11.8889 81.922C13.306 81.8275 35.3583 80.5856 48.5569 80.0059" stroke="#26330D" stroke-width="1.5" stroke-linecap="round"/>
<path d="M56.2858 48.8623L56.6948 20.2984C56.6948 19.4431 56.3222 18.199 54.2109 18.51" stroke="#26330D" stroke-width="1.5" stroke-linecap="round"/>
<path d="M8.26024 18.2767C7.48404 18.2767 5.69888 18.2767 5.77637 20.2983C5.85084 22.2411 6.55257 42.1361 6.78544 51.3629" stroke="#26330D" stroke-width="1.5" stroke-linecap="round"/>
<path d="M6.78516 55.8317L7.48373 80.0908C7.56135 80.9461 7.87183 82.1902 11.5976 81.8791" stroke="#26330D" stroke-width="1.5" stroke-linecap="round"/>
<path d="M15.7764 31.4616H30.3252" stroke="#26330D" stroke-width="1.5" stroke-linecap="round"/>
<path d="M15.8738 36.6231L47.2839 36.4676" stroke="#26330D" stroke-width="1.5" stroke-linecap="round"/>
<path d="M15.9512 41.8321L40.5972 41.5988" stroke="#26330D" stroke-width="1.5" stroke-linecap="round"/>
<path d="M16.1881 49.9227L28.3132 49.3739" stroke="#26330D" stroke-width="1.5" stroke-linecap="round"/>
<path d="M57.1949 49.4306C56.6266 50.4914 55.3762 51.9312 56.7402 54.6591" stroke="#26330D" stroke-width="1.5" stroke-linecap="round"/>
<path d="M39.1226 62.0691C38.3649 62.9711 37.9405 65.5479 42.3052 68.6395C44.4648 70.0414 48.9431 74.2999 49.5796 80.1195" stroke="#26330D" stroke-width="1.5" stroke-linecap="round"/>
<path d="M37.986 52.9541C37.5799 53.7156 37.4017 55.1812 38.6681 56.5851C39.2919 57.2767 40.2664 57.9534 41.7369 58.5236" stroke="#26330D" stroke-width="1.5" stroke-linecap="round"/>
<path d="M38.6675 56.5851C37.855 57.7605 37.1142 60.1705 39.1222 62.0692C39.6422 62.5609 41.3695 63.473 42.3048 63.8658" stroke="#26330D" stroke-width="1.5" stroke-linecap="round"/>
<path d="M54.4525 100.012C52.0277 94.367 48.633 82.1445 54.4525 78.4163C61.7269 73.7562 71.1609 84.3268 74.4572 93.4198" stroke="#26330D" stroke-width="1.5" stroke-linecap="round"/>
</svg>
