<svg width="111" height="88" viewBox="0 0 111 88" fill="none" xmlns="http://www.w3.org/2000/svg">
<path d="M68.3509 36.3519C71.5608 56.1439 61.7648 73.845 46.9142 76.2535C32.0635 78.662 17.1752 64.9642 13.9653 45.1722C10.7554 25.3802 20.5514 7.67902 35.4021 5.27053C50.2527 2.86204 65.141 16.5599 68.3509 36.3519Z" stroke="#26330D" stroke-width="1.5"/>
<path d="M62.1268 36.9969C63.3522 44.5524 62.1846 51.7319 59.3423 57.2269C56.5 62.7219 52.0134 66.4883 46.5929 67.3674C41.1724 68.2465 35.7255 66.0912 31.2921 61.7761C26.8589 57.4611 23.482 51.0185 22.2567 43.4631C21.0313 35.9077 22.1989 28.7281 25.0412 23.2331C27.8835 17.7381 32.3701 13.9717 37.7906 13.0926C43.2111 12.2135 48.658 14.3688 53.0914 18.6839C57.5246 22.9989 60.9015 29.4415 62.1268 36.9969Z" stroke="#26330D" stroke-width="1.5"/>
<ellipse cx="44.1241" cy="40.5331" rx="10.5589" ry="14.2372" transform="rotate(-9.21208 44.1241 40.5331)" fill="#26330D"/>
<path d="M19.8622 72.6957C38.9297 91.0483 60.1425 80.3228 64.6712 68.763C62.6545 80.2937 48.9908 86.8356 37.6188 87.1154C25.1057 87.1154 9.49405 76.7473 5.20378 67.3327C-10.5841 32.6875 13.4666 8.30256 25.4634 4.88635C2.93959 15.4927 -0.630869 52.971 19.8622 72.6957Z" fill="#26330D"/>
<path d="M43.9351 37.4203L77.8993 15.7049L84.6922 11.4406" stroke="#26330D" stroke-width="1.5" stroke-linecap="round"/>
<path d="M77.0649 13.9432L77.6671 9.81387C77.8121 8.82011 78.4446 7.96478 79.3524 7.53516L88.2612 3.31879C89.8392 2.57192 91.4292 4.32234 90.5345 5.82155V5.82155C89.8692 6.93639 90.593 8.36404 91.8855 8.4863L92.2739 8.52305C94.1613 8.70158 94.7786 11.1515 93.2012 12.2031L85.8937 17.0748C85.1343 17.5811 84.1857 17.7141 83.3163 17.4363L77.8992 15.7049" stroke="#26330D" stroke-width="1.5" stroke-linecap="round"/>
<path d="M45.2459 39.923L87.7625 24.6953L95.3068 21.9733" stroke="#26330D" stroke-width="1.5" stroke-linecap="round"/>
<path d="M87.3222 22.7966L88.7888 18.8898C89.1418 17.9496 89.9418 17.2484 90.9201 17.0216L100.522 14.7964C102.223 14.4022 103.404 16.4507 102.211 17.7254V17.7254C101.324 18.6732 101.727 20.2221 102.964 20.6165L103.336 20.735C105.142 21.3108 105.224 23.836 103.459 24.5281L95.283 27.7342C94.4332 28.0674 93.4781 27.9956 92.6876 27.5392L87.7626 24.6954" stroke="#26330D" stroke-width="1.5" stroke-linecap="round"/>
<path d="M78.4274 35.0278L80.3261 31.8634C80.8402 31.0067 81.7469 30.4622 82.7447 30.4109L91.3842 29.9671C92.9789 29.8852 93.7146 31.9186 92.4367 32.876V32.876C91.4918 33.5839 91.5995 35.0329 92.6386 35.5933L92.9388 35.7552C94.4504 36.5705 94.1137 38.83 92.43 39.1692L84.7814 40.7097C83.8712 40.893 82.9273 40.6445 82.2254 40.0368L78.4917 36.8042" stroke="#26330D" stroke-width="1.5" stroke-linecap="round"/>
<path d="M45.9612 42.4255L78.4919 36.8042L85.6236 35.5718" stroke="#26330D" stroke-width="1.5" stroke-linecap="round"/>
</svg>
