<svg width="115" height="88" viewBox="0 0 115 88" fill="none" xmlns="http://www.w3.org/2000/svg">
<path d="M39.5273 84.402C41.6431 84.894 47.6461 85.2286 48.827 81.4497" stroke="#26330D" stroke-width="2" stroke-linecap="round"/>
<path d="M42.627 76.1356C46.1697 79.5307 51.7791 84.9925 54.7313 80.5641L56.5027 77.6118" stroke="#26330D" stroke-width="2" stroke-linecap="round"/>
<path d="M42.627 66.9836C46.6617 70.8215 59.0416 80.0327 64.4738 76.7261C65.4579 76.0865 67.4556 74.0395 67.5737 70.9692" stroke="#26330D" stroke-width="2" stroke-linecap="round"/>
<path d="M52.3697 61.817C57.3394 65.7042 68.312 72.6519 72.4452 69.3454C76.5784 66.0388 72.2976 61.4726 69.6405 59.6028L51.7793 45.1366" stroke="#26330D" stroke-width="2" stroke-linecap="round"/>
<path d="M1 47.7937C3.21425 48.9567 5.65716 51.9732 6.46171 54.7316C7.49506 58.2743 10.3981 61.325 11.6283 62.2599" stroke="#26330D" stroke-width="2" stroke-linecap="round"/>
<path d="M45.2842 28.0134C42.332 26.8325 34.0656 24.4412 27.5706 25.504C21.0755 26.5668 21.666 24.4707 18.5661 22.6993L1 11.9234" stroke="#26330D" stroke-width="2" stroke-linecap="round"/>
<path d="M68.9028 27.1278L75.3979 23.7326M74.6598 65.3599C77.3759 64.6513 81.8929 60.6362 83.8119 58.7172L91.3402 54.7316" stroke="#26330D" stroke-width="2" stroke-linecap="round"/>
<path d="M69.4931 42.9224C65.1631 45.5303 54.3183 48.7384 45.5796 41.8891" stroke="#26330D" stroke-width="2" stroke-linecap="round"/>
<path d="M45.5796 41.8893C42.3321 46.4653 34.7152 55.204 30.2278 53.5508C25.7403 51.8975 27.7675 47.0557 29.3421 44.8415C33.9181 35.6895 48.2367 19.3338 68.9027 27.1278" stroke="#26330D" stroke-width="2" stroke-linecap="round"/>
<path d="M39.8228 79.0878C39.7047 83.4572 38.2975 85.3368 37.6086 85.7304C34.2504 87.6494 30.5231 84.6971 31.5633 82.2975C32.2773 80.9683 33.234 78.2261 33.623 77.0212C34.5287 74.2165 39.9409 74.7184 39.8228 79.0878Z" stroke="#26330D" stroke-width="2" stroke-linecap="round"/>
<path d="M27.5707 83.2211C22.6109 84.2839 22.5518 79.2355 24.766 76.726C25.4756 75.9219 27.246 74.2694 29.4897 72.4452C31.7334 70.621 33.18 72.1772 33.6229 73.1833C34.2076 74.5118 32.5305 82.1582 27.5707 83.2211Z" stroke="#26330D" stroke-width="2" stroke-linecap="round"/>
<path d="M19.3041 77.3165C13.8719 77.1984 14.1377 72.4453 16.3519 70.3787C18.074 68.5581 22.4631 65.1826 26.242 66.2455C30.0209 67.3083 29.1943 70.8215 28.3086 72.5929C27.5705 74.2166 24.7363 77.4346 19.3041 77.3165Z" stroke="#26330D" stroke-width="2" stroke-linecap="round"/>
<path d="M21.0757 60.9313C15.2892 59.5142 10.3983 62.9979 8.67613 64.9169C7.49522 66.452 7.59363 68.2136 7.79044 68.9025C9.20754 72.4453 15.7616 69.8866 18.8615 68.1644C22.0106 66.3439 26.8622 62.3484 21.0757 60.9313Z" stroke="#26330D" stroke-width="2" stroke-linecap="round"/>
<path d="M29.0469 7.79025C29.9326 9.75844 31.4382 14.61 30.3754 18.2709" stroke="#26330D" stroke-width="2" stroke-linecap="round"/>
<path d="M34.5083 11.4806C34.7543 12.5631 35.2464 15.171 35.2464 16.9423" stroke="#26330D" stroke-width="2" stroke-linecap="round"/>
<path d="M52.9604 1L56.3556 12.9567" stroke="#26330D" stroke-width="2" stroke-linecap="round"/>
<path d="M62.555 6.31412L61.5217 13.3996" stroke="#26330D" stroke-width="2" stroke-linecap="round"/>
<path d="M71.7068 11.4806L66.5403 15.4662" stroke="#26330D" stroke-width="2" stroke-linecap="round"/>
<path d="M100.124 7.50829L84.7722 19.1698C65.2871 34.0788 84.3292 50.8084 91.4147 54.5972L114 40.131" stroke="#26330D" stroke-width="2" stroke-linecap="round"/>
</svg>
