<svg width="113" height="93" viewBox="0 0 113 93" fill="none" xmlns="http://www.w3.org/2000/svg">
<path d="M76.7007 25.8202H66.3622L65.8745 30.4211H76.9933L76.7007 25.8202Z" fill="#26330D"/>
<path d="M77.6088 34.4469H65.4878L64.916 39.4312H77.9518L77.6088 34.4469Z" fill="#26330D"/>
<path d="M78.3255 43.6486H64.4219L63.7661 49.0163H78.719L78.3255 43.6486Z" fill="#26330D"/>
<path d="M79.1213 53.4255H62.9932L62.2324 58.9849H76.4875L79.4857 57.4513L79.1213 53.4255Z" fill="#26330D"/>
<path d="M61.2739 67.1323L66.8333 21.9862M76.6102 21.9862L79.4857 56.972" stroke="#26330D" stroke-linecap="round"/>
<path d="M65.012 21.9862H78.9104" stroke="#26330D" stroke-linecap="round"/>
<path d="M65.012 13.3595H78.9104" stroke="#26330D" stroke-linecap="round"/>
<path d="M67.0249 15.4683V19.1106" stroke="#26330D" stroke-linecap="round"/>
<path d="M76.4185 15.4683V19.1106" stroke="#26330D" stroke-linecap="round"/>
<circle cx="72.0093" cy="17.1936" r="1.72533" fill="#26330D"/>
<rect x="70.2839" y="10.1006" width="3.45066" height="1.72533" rx="0.862664" fill="#26330D"/>
<path d="M57.1184 12.8308L28.4866 1.37808" stroke="#26330D" stroke-linecap="round"/>
<path d="M55.9731 17.4119L4.43579 15.1214" stroke="#26330D" stroke-linecap="round"/>
<path d="M55.9732 21.993L1 43.7532" stroke="#26330D" stroke-linecap="round"/>
<path d="M58.2638 27.7194L15.8887 67.804" stroke="#26330D" stroke-linecap="round"/>
<path d="M20.6329 83.0834C24.1933 81.9965 50.7468 74.6218 60.232 68.1072" stroke="#26330D" stroke-linecap="round"/>
<path d="M45.8366 82.0968C50.5088 74.6035 56.2772 69.5991 67.8269 63.614C82.2641 56.1326 85.5623 54.8193 91.7377 45.5914" stroke="#26330D" stroke-linecap="round"/>
<path d="M91.9602 45.5915C92.6989 48.1588 94.577 54.7216 95.9474 58.2331M94.4706 56.9055C95.8595 57.8505 98.795 60.9587 99.4264 65.8323C100.058 70.7058 102.613 74.2039 103.645 76.2876" stroke="#26330D" stroke-linecap="round"/>
<path d="M94.8379 65.4391C95.8256 68.1219 97.6747 71.5444 103.501 75.8074" stroke="#26330D" stroke-linecap="round"/>
<path d="M111.154 91.2437C109.434 87.5435 105.439 79.2053 103.222 75.4534" stroke="#26330D" stroke-linecap="round"/>
<path d="M91.7378 45.5915C90.8516 49.1746 89.2962 57.2355 91.5143 61.7852" stroke="#26330D" stroke-linecap="round"/>
<path d="M90.1672 58.3539C88.2213 59.3895 85.7404 63.186 91.5811 71.2426" stroke="#26330D" stroke-linecap="round"/>
<path d="M85.6702 72.8154C87.241 72.9787 90.611 72.9292 91.524 71.4257" stroke="#26330D" stroke-linecap="round"/>
<path d="M87.7904 87.9319L85.6707 72.8156" stroke="#26330D" stroke-linecap="round"/>
</svg>
