<svg width="458" height="265" viewBox="0 0 458 265" fill="none" xmlns="http://www.w3.org/2000/svg">
<path d="M0 38.4C0 24.9587 0 18.2381 2.61584 13.1042C4.9168 8.58834 8.58834 4.9168 13.1042 2.61584C18.2381 0 24.9587 0 38.4 0H419.6C433.041 0 439.762 0 444.896 2.61584C449.412 4.9168 453.083 8.58834 455.384 13.1042C458 18.2381 458 24.9587 458 38.4V160.6C458 174.041 458 180.762 455.384 185.896C453.083 190.412 449.412 194.083 444.896 196.384C439.762 199 433.041 199 419.6 199H379.252C370.879 199 366.692 199 363.286 200.033C355.615 202.36 349.613 208.363 347.286 216.033C346.252 219.44 346.252 223.627 346.252 232C346.252 240.373 346.252 244.56 345.219 247.967C342.892 255.637 336.89 261.64 329.219 263.967C325.812 265 321.626 265 313.252 265H38.4C24.9588 265 18.2381 265 13.1042 262.384C8.58834 260.083 4.9168 256.412 2.61584 251.896C0 246.762 0 240.041 0 226.6V38.4Z" fill="#D9D9D9"/>
</svg>
