<svg width="157" height="112" viewBox="0 0 157 112" fill="none" xmlns="http://www.w3.org/2000/svg">
    <path fill-rule="evenodd" clip-rule="evenodd"
        d="M74.3696 0.821405L71.8251 29.2073L75.8091 29.5644L78.3536 1.17853L74.3696 0.821405ZM0.0639703 33.4265C4.09275 35.5597 10.2623 39.4209 15.5976 44.0184C18.2636 46.3158 20.6771 48.7593 22.5077 51.2245C24.3494 53.7045 25.5162 56.0925 25.8558 58.2897L29.8088 57.6786C29.3325 54.5969 27.7702 51.6017 25.7191 48.8397C23.657 46.0629 21.0139 43.4055 18.2088 40.9883C12.6019 36.1567 6.17119 32.1341 1.93579 29.8915L0.0639703 33.4265ZM35.3501 14.2125C40.6865 18.9558 46.7588 29.0243 51.0547 40.6222C55.3442 52.2032 57.6898 64.8481 55.9843 74.6312L59.6641 76.0128L59.9357 75.5653C63.5478 69.6139 68.0697 62.1634 74.6375 57.2601C77.9642 54.7765 81.7837 52.9769 86.2515 52.374C90.72 51.7711 95.9611 52.3484 102.155 54.8042C114.308 59.6224 121.003 70.3829 122.768 80.9857C122.799 81.1704 122.828 81.3548 122.856 81.5389C122.751 81.5273 122.647 81.5162 122.543 81.5056C111.495 80.3827 101.764 85.1102 97.0042 91.6621C92.3946 98.0069 92.1152 104.759 96.4475 108.746C100.626 112.592 107.994 112.744 116.232 108.536C123.684 104.73 127.27 95.9056 127.237 86.4678C135.624 88.8555 144.748 95.3106 152.731 108.394L156.146 106.31C147.333 91.8673 136.889 84.6536 126.986 82.2657C126.912 81.6194 126.821 80.9734 126.714 80.3288C124.763 68.6115 117.32 56.5138 103.63 51.0858C96.9022 48.4186 90.9681 47.7013 85.7166 48.41C80.4645 49.1187 76.019 51.2369 72.2445 54.0548C67.3843 57.6833 63.5846 62.5219 60.5406 67.0772C60.4399 58.1216 58.1391 48.2326 54.8056 39.2329C50.4131 27.374 44.0547 16.598 38.0075 11.2228L35.3501 14.2125ZM122.139 85.4851C122.5 85.5218 122.864 85.5658 123.229 85.6172C123.509 94.4704 120.212 102.012 114.413 104.974C106.804 108.86 101.519 107.977 99.1564 105.803C96.9481 103.771 96.2418 99.5169 100.24 94.0132C104.088 88.7166 112.376 84.4929 122.139 85.4851Z"
        fill="#26330D" />
</svg>