<svg width="103" height="96" viewBox="0 0 103 96" fill="none" xmlns="http://www.w3.org/2000/svg">
<path d="M15.2791 69.5785V63.383V54.2769C15.2791 52.0654 15.5921 50.1358 12.9301 49.9841C10.268 49.8323 9.00034 52.846 4.43675 51.8053C2.02824 51.256 2.47826e-06 48.8133 0 45.9514C-4.28054e-06 41.008 5.36506 38.0254 10.5215 41.2682C15.2791 44.2602 15.2791 38.6665 15.2791 36.8453V26.3569C15.2791 25.2523 16.1746 24.3569 17.2791 24.3569H33.2798C36.8292 24.6171 34.6742 28.6498 33.6601 31.1214C31.6319 36.0647 34.3784 38.8399 36.3222 39.5771C43.1675 41.2682 44.8154 33.9833 42.5337 31.1214C39.4138 27.2083 40.2519 24.7472 41.7731 24.7472H56.9884C58.1504 24.7472 59.0914 25.7336 59.0854 26.8956C59.0719 29.48 59.1399 33.5784 59.1399 37.6258C59.1399 44.3903 65.2247 42.1788 65.2247 42.3089C65.2247 42.439 74.3423 39.8798 75.1124 46.9921C75.6194 51.6752 70.6756 54.6671 65.2247 52.9759C60.864 51.623 60.1541 53.2362 60.1541 54.6671V69.5785C60.1541 70.683 59.2586 71.5785 58.1541 71.5785H41.7558C41.058 71.5785 40.3927 71.2203 40.0968 70.5883C38.4634 67.0997 40.4537 65.3001 41.6463 62.3423C43.1675 58.5698 41.505 55.428 38.9843 54.6671C35.6883 53.6723 29.8571 55.4477 32.2657 62.3423C34.123 67.6589 34.0404 71.5785 30.998 71.5785H17.2791C16.1746 71.5785 15.2791 70.683 15.2791 69.5785Z" fill="#26330D"/>
<path d="M58.8406 25.3724H73.4386C75.2158 25.3724 78.4572 23.7527 77.3738 17.2517C76.2313 10.3965 81.6823 10.4536 83.9746 11.2849C85.1594 11.7085 87.1735 13.4948 85.7518 17.2517C83.9746 21.9478 85.1171 25.6304 88.7983 25.6304H100C101.105 25.6304 102 26.5258 102 27.6304V68.9242C102 70.0364 101.095 70.9352 99.983 70.9264C96.2272 70.8967 88.3943 70.848 86.7673 70.9438C84.6093 71.0707 84.9838 73.4255 86.2595 76.4022C88.1636 80.845 86.196 86.2662 79.7856 85.161C76.1044 84.5263 74.5811 80.5912 76.1044 76.4022C77.6276 72.2132 75.8505 70.9438 74.2003 70.9438C70.8475 70.9438 63.0045 70.9014 59.6618 70.9438" stroke="#26330D" stroke-width="1.5" stroke-linecap="round"/>
<path d="M60.804 85.2879C61.6079 86.6843 63.2666 89.7054 63.4697 90.6194" stroke="#26330D" stroke-width="1.5" stroke-linecap="round"/>
<path d="M57.6307 86.0496C57.2075 87.192 56.996 90.594 59.5347 95.0623" stroke="#26330D" stroke-width="1.5" stroke-linecap="round"/>
<path d="M52.8071 85.2879C51.1568 86.8112 47.7802 90.3655 47.4756 92.3966" stroke="#26330D" stroke-width="1.5" stroke-linecap="round"/>
<path d="M58.1383 10.7744C59.7885 9.25111 63.1651 5.6968 63.4697 3.66576" stroke="#26330D" stroke-width="1.5" stroke-linecap="round"/>
<path d="M53.3147 10.0127C53.7378 8.87027 53.9494 5.46829 51.4106 1.00001" stroke="#26330D" stroke-width="1.5" stroke-linecap="round"/>
<path d="M50.1411 10.7744C49.3372 9.37805 47.6785 6.35688 47.4754 5.44292" stroke="#26330D" stroke-width="1.5" stroke-linecap="round"/>
</svg>
