<svg width="36" height="36" viewBox="0 0 36 36" fill="none" xmlns="http://www.w3.org/2000/svg">
<path d="M26.8777 21.4801C26.4892 21.8566 26.3107 22.4011 26.3992 22.9351L27.7327 30.3151C27.8452 30.9406 27.5812 31.5736 27.0577 31.9351C26.5447 32.3101 25.8622 32.3551 25.3027 32.0551L18.6592 28.5901C18.4282 28.4671 18.1717 28.4011 17.9092 28.3936H17.5027C17.3617 28.4146 17.2237 28.4596 17.0977 28.5286L10.4527 32.0101C10.1242 32.1751 9.7522 32.2336 9.3877 32.1751C8.4997 32.0071 7.9072 31.1611 8.0527 30.2686L9.3877 22.8886C9.4762 22.3501 9.2977 21.8026 8.9092 21.4201L3.4927 16.1701C3.0397 15.7306 2.8822 15.0706 3.0892 14.4751C3.2902 13.8811 3.8032 13.4476 4.4227 13.3501L11.8777 12.2686C12.4447 12.2101 12.9427 11.8651 13.1977 11.3551L16.4827 4.62012C16.5607 4.47012 16.6612 4.33212 16.7827 4.21512L16.9177 4.11012C16.9882 4.03212 17.0692 3.96762 17.1592 3.91512L17.3227 3.85512L17.5777 3.75012H18.2092C18.7732 3.80862 19.2697 4.14612 19.5292 4.65012L22.8577 11.3551C23.0977 11.8456 23.5642 12.1861 24.1027 12.2686L31.5577 13.3501C32.1877 13.4401 32.7142 13.8751 32.9227 14.4751C33.1192 15.0766 32.9497 15.7366 32.4877 16.1701L26.8777 21.4801Z" fill="#FFC727"/>
</svg>
